<svg id="Layer_1" data-name="Layer 1" xmlns="http://www.w3.org/2000/svg" viewBox="0 0 339.98 339.98"><g opacity="0"><line x1="300.12" y1="169.99" x2="148.49" y2="169.99" fill="none" stroke="#af1e42" stroke-miterlimit="10" stroke-width="18"/><path d="M175.87,396c51.12-19,114.54-51.33,153.85-85.61l-31,85.61,31,85.59C290.41,447.31,227,415,175.87,396Z" transform="translate(-136.01 -226.01)" fill="#af1e42"/></g><g opacity="0"><line x1="39.86" y1="169.99" x2="191.49" y2="169.99" fill="none" stroke="#ae1e41" stroke-miterlimit="10" stroke-width="18"/><path d="M436.13,396C385,415,321.59,447.33,282.28,481.61l31-85.61-31-85.59C321.59,344.69,385,377.05,436.13,396Z" transform="translate(-136.01 -226.01)" fill="#ae1e41"/></g><circle cx="169.99" cy="169.99" r="150.99" fill="none" stroke="#ae1e41" stroke-miterlimit="10" stroke-width="38"/><path d="M200.06,423.62l13.81-68.71H215l25.11,43.33,23.68-43.33H265l13.91,68.71h-15.1l-5.65-30.39-17.85,32.82h-1.06l-19.18-33.27-5.83,30.84Z" transform="translate(-136.01 -226.01)" fill="#470000"/><path d="M288.78,423.62V357.07h15.88v66.55Z" transform="translate(-136.01 -226.01)" fill="#470000"/><path d="M317.14,404.8a58,58,0,0,0,10.44,5.28,25.14,25.14,0,0,0,8.38,1.51,11,11,0,0,0,6.63-1.81,5.53,5.53,0,0,0,2.51-4.66q0-4.08-8.91-9.18l-2.2-1.28-4.5-2.53a28.2,28.2,0,0,1-9.73-8.4,18.48,18.48,0,0,1-3.17-10.6A16.5,16.5,0,0,1,322.65,360q6.06-5.15,15.65-5.14a39.34,39.34,0,0,1,7.67.82,71.9,71.9,0,0,1,9.18,2.57v15.61a52.92,52.92,0,0,0-9.14-4.68,21.2,21.2,0,0,0-7.34-1.65,8.66,8.66,0,0,0-5.28,1.44,4.67,4.67,0,0,0-1.93,3.93,5.31,5.31,0,0,0,1.15,3.25,10.57,10.57,0,0,0,3.44,2.76l7.81,4.31q9.76,5.42,13.15,10a17.93,17.93,0,0,1,3.37,10.88q0,9.72-6.63,15.72t-17.6,6a46,46,0,0,1-8.08-.78,76.11,76.11,0,0,1-9.6-2.44Z" transform="translate(-136.01 -226.01)" fill="#470000"/><path d="M368.92,404.8a58,58,0,0,0,10.44,5.28,25.06,25.06,0,0,0,8.38,1.51,11.05,11.05,0,0,0,6.63-1.81,5.54,5.54,0,0,0,2.5-4.66q0-4.08-8.91-9.18l-2.2-1.28-4.5-2.53a28.29,28.29,0,0,1-9.73-8.4,18.47,18.47,0,0,1-3.16-10.6A16.52,16.52,0,0,1,374.42,360q6.06-5.15,15.66-5.14a39.25,39.25,0,0,1,7.66.82,71.45,71.45,0,0,1,9.18,2.57v15.61a52.85,52.85,0,0,0-9.13-4.68,21.3,21.3,0,0,0-7.35-1.65,8.61,8.61,0,0,0-5.27,1.44,4.64,4.64,0,0,0-1.93,3.93,5.3,5.3,0,0,0,1.14,3.25,10.62,10.62,0,0,0,3.45,2.76l7.8,4.31q9.78,5.42,13.15,10a17.87,17.87,0,0,1,3.37,10.88q0,9.72-6.63,15.72t-17.6,6a46.12,46.12,0,0,1-8.08-.78,76,76,0,0,1-9.59-2.44Z" transform="translate(-136.01 -226.01)" fill="#470000"/></svg>